<?xml version="1.0" encoding="utf-8"?>
<!-- Generator: Adobe Illustrator 19.1.0, SVG Export Plug-In . SVG Version: 6.00 Build 0)  -->
<svg version="1.1" id="Layer_1" xmlns="http://www.w3.org/2000/svg" xmlns:xlink="http://www.w3.org/1999/xlink" x="0px" y="0px"
	 viewBox="0 0 64 64" enable-background="new 0 0 64 64" xml:space="preserve">
<g id="Like">
	<path d="M52.1333427,25.8080997H42.0833435l6.0568123-7.417799c1.9607849-2.3994007,3.0414848-5.4348011,3.0414848-8.5449009
		V5.6304002c0-1.4799004-0.5957985-2.9296002-1.6352005-3.9791002C48.5040398,0.6019,47.0614433,0,45.5885429,0
		c-2.0707016,0-3.9498024,1.3116-4.6757011,3.2643001L37.9802399,11.1489c-0.2630844,0.7076998-0.6975975,1.3469-1.2570839,1.8469
		l-9.7718143,8.7595997v0.0009995c-1.7077999,1.5314007-2.6877003,3.7301006-2.6877003,6.0327015v27.5328979
		c0,2.3439026,1.2390003,4.5507011,3.2371006,5.7615013l1.2269001,0.7420006
		c2.3479004,1.4193993,5.0365982,2.1704979,7.7756996,2.1704979h16.8769989c1.9668159,0,3.815815-0.7711983,5.2130013-2.1785965
		l0.464817-0.4678001c1.5221825-1.5363007,2.3610001-3.5778008,2.3610001-5.7483025V35.1645012
		C61.4191589,30.0049,57.25354,25.8080997,52.1333427,25.8080997z M57.5953407,59.9029999L57.12854,60.3737984
		c-1.0020981,1.0101013-2.3337975,1.5656013-3.7481995,1.5656013H36.5033417c-2.3630981,0-4.6837997-0.648201-6.7110996-1.8740997
		l-1.2278996-0.7420006c-1.3841858-0.8387985-2.2441006-2.3721008-2.2441006-4.0013008V27.7891006
		c0-1.7189007,0.7309151-3.3600998,2.0041008-4.5023003v0.0009995L38.0951576,14.5281
		c0.8074837-0.7228003,1.4335823-1.6431999,1.8125839-2.6624002L42.8404427,3.9821
		c0.4283981-1.1523001,1.532299-1.9254999,2.7481003-1.9254999c0.9284973,0,1.8398972,0.3810999,2.4972,1.0433998
		c0.6602974,0.6664002,1.039299,1.5888,1.039299,2.5304003v4.2149997c0,2.6373005-0.9153023,5.21-2.5777016,7.2444
		L39.119442,26.1861c-0.2510986,0.3075008-0.3025017,0.7318993-0.1330986,1.0907993
		c0.1703987,0.3589001,0.532299,0.587801,0.9294968,0.587801h12.2175026c3.9860992,0,7.2291985,3.2743988,7.2291985,7.2998009
		v0.9321976c-0.0505981-0.0071983-0.0956001-0.0298996-0.148201-0.0298996h-8.2584991
		c-0.6039009,0-1.0928001,0.4888992-1.0928001,1.0928001s0.4888992,1.0928001,1.0928001,1.0928001h8.2584991
		c0.0526009,0,0.0976028-0.0227013,0.148201-0.0298004v6.1326027c-0.0505981-0.007103-0.0956001-0.0298004-0.148201-0.0298004
		h-8.2584991c-0.6039009,0-1.0928001,0.4888992-1.0928001,1.0928001c0,0.6038971,0.4888992,1.0928001,1.0928001,1.0928001h8.2584991
		c0.0526009,0,0.0976028-0.0227013,0.148201-0.0299034v6.1037025c-0.0013847,0-0.0026016-0.0008011-0.0040016-0.0008011h-8.2584991
		c-0.6038818,0-1.0928001,0.4888992-1.0928001,1.0928001c0,0.6038017,0.4889183,1.0928001,1.0928001,1.0928001h8.2584991
		c0.0014,0,0.0026169-0.0008011,0.0040016-0.0008011v0.8325005C59.3625412,57.225399,58.7355423,58.7527008,57.5953407,59.9029999z"
		/>
	<path d="M2.5808427,64h18.5817986v-39.228302H2.5808427V64z M4.7021575,26.8929996h14.3392849v34.9858017H4.7021575V26.8929996z"/>
</g>
</svg>
